<svg width="212" height="211" viewBox="0 0 212 211" fill="none" xmlns="http://www.w3.org/2000/svg">
<path d="M2.40376 125.386L38.7115 115.658C30.9856 83.307 29.8551 52.4839 34.3738 27.8131C8.30148 51.9949 -4.71942 88.6143 2.40376 125.386Z" fill="#092927"/>
<path d="M9.04369 147.057C22.5796 178.73 50.4748 201.12 82.7855 208.488C67.7762 190.839 54.3165 166.234 44.875 137.456L9.04369 147.057Z" fill="#092927"/>
<path d="M148.11 202.446C143.455 204.449 138.599 206.141 133.56 207.491C128.521 208.841 123.47 209.804 118.437 210.397C113.556 207.401 107.903 202.719 101.61 195.622C88.4396 180.77 75.8066 158.605 66.7898 131.584L153.432 108.368C159.133 136.277 159.275 161.789 155.296 181.237C153.394 190.53 150.84 197.411 148.11 202.446Z" fill="#092927"/>
<path d="M178.031 182.967C202.329 160.431 215.292 127.093 211.178 92.8953L175.347 102.496C181.559 132.14 182.205 160.178 178.031 182.967Z" fill="#092927"/>
<path d="M206.093 70.8081C193.876 35.4009 164.29 10.198 129.619 2.29216C145.868 21.3983 160.301 48.6571 169.785 80.5368L206.093 70.8081Z" fill="#092927"/>
<path d="M64.2951 8.33465C68.9497 6.33177 73.8056 4.63939 78.8446 3.28919C83.8836 1.939 88.9352 0.976679 93.9676 0.383939C98.8494 3.3794 104.502 8.06125 110.795 15.1583C125.118 31.3105 138.806 56.1117 147.898 86.4015L60.5991 109.793C53.328 79.0154 52.7812 50.6932 57.1092 29.5434C59.0109 20.2505 61.5651 13.3697 64.2951 8.33465Z" fill="#092927"/>
</svg>
